PathFileType	4	(X/Y/Z)	s04c0202.trc
DataRate	CameraRate	NumFrames	NumMarkers	Units	OrigDataRate	OrigDataStartFrame	OrigNumFrames
200	200	7	50	mm	200	1500	2000
Frame#	Time	racr			lacr			c7			jug			rlel			rdr			llel			ldr			s2			lic			ric			lasi			rasi			rpsi			lpsi			rgt			lgt			rth1			rth2			rth3			rth4			rlfc			rmfc			rsh1			rsh2			rsh3			rsh4			rlmal			rmmal			rcal			rtoe			rmt5			lth1			lth2			lth4			lth3			llfc			lmfc			lsh1			lsh2			lsh3			lsh4			llmal			lmmal			lcal			ltoe			lmt5			SBIKE			LBIKE			RBIKE			
		X1	Y1	Z1	X2	Y2	Z2	X3	Y3	Z3	X4	Y4	Z4	X5	Y5	Z5	X6	Y6	Z6	X7	Y7	Z7	X8	Y8	Z8	X9	Y9	Z9	X10	Y10	Z10	X11	Y11	Z11	X12	Y12	Z12	X13	Y13	Z13	X14	Y14	Z14	X15	Y15	Z15	X16	Y16	Z16	X17	Y17	Z17	X18	Y18	Z18	X19	Y19	Z19	X20	Y20	Z20	X21	Y21	Z21	X22	Y22	Z22	X23	Y23	Z23	X24	Y24	Z24	X25	Y25	Z25	X26	Y26	Z26	X27	Y27	Z27	X28	Y28	Z28	X29	Y29	Z29	X30	Y30	Z30	X31	Y31	Z31	X32	Y32	Z32	X33	Y33	Z33	X34	Y34	Z34	X35	Y35	Z35	X36	Y36	Z36	X37	Y37	Z37	X38	Y38	Z38	X39	Y39	Z39	X40	Y40	Z40	X41	Y41	Z41	X42	Y42	Z42	X43	Y43	Z43	X44	Y44	Z44	X45	Y45	Z45	X46	Y46	Z46	X47	Y47	Z47	X48	Y48	Z48	X49	Y49	Z49	X50	Y50	Z50	
1500	7.5000	519.268966	1297.694401	-131.057633	527.027909	1310.582720	-408.665918	499.325857	1382.712612	-272.862146	430.127592	1239.581430	-288.597252	486.095281	1060.241420	78.227765	686.455514	942.094346	-97.475859	471.631588	1091.528266	-599.007763	648.092755	902.781553	-477.148554	-74.795043	1177.223400	-287.946792	72.999017	1205.596919	-440.300047	75.888804	1185.515618	-118.642036	115.735263	1163.514794	-396.918175	126.120794	1139.126610	-161.793276	-45.393550	1221.435851	-241.962264	-48.292794	1228.331092	-314.879260	27.770065	1120.538194	-108.294780	57.921284	1120.073898	-469.398133	132.858742	993.172217	-84.179052	203.735497	940.053905	-83.064217	240.802341	863.226847	-80.729495	230.219919	961.980521	-97.852382	308.011363	734.693244	-94.943829	299.921317	718.614114	-209.808455	223.284857	639.983952	-78.682515	186.133870	559.133738	-99.207980	113.452211	514.129018	-114.523973	214.266806	542.120353	-120.022795	26.062355	388.968070	-130.403641	59.314625	386.097142	-211.978645	-43.976337	392.327846	-179.477606	203.668981	217.028734	-155.307514	129.816923	234.065853	-107.452933	128.479651	1058.044392	-474.418519	212.529167	1037.114091	-471.893068	229.358879	1067.930489	-460.980499	276.598705	974.923272	-470.627300	401.521184	873.343015	-443.414562	425.510177	849.998922	-333.714836	383.147766	755.572738	-471.961595	372.525046	670.420833	-453.955658	322.913106	597.065185	-458.460205	396.170978	663.922992	-423.061360	266.828337	465.413081	-461.693030	255.106166	463.832891	-373.024468	183.402569	438.003785	-428.328476	483.221526	437.029842	-409.814950	420.133816	396.215466	-477.498490	-185.007499	931.843269	-286.910465	-17.524320	79.199639	-485.591861	-17.475113	79.350045	-84.917476	
1501	7.5050	518.247710	1297.583683	-130.049254	526.858706	1310.781888	-408.292881	498.932931	1382.695489	-271.950605	429.547393	1239.686689	-287.953737	484.948685	1059.674921	78.003835	685.555971	941.550190	-97.699462	471.143510	1092.042420	-598.301416	647.518045	903.148663	-477.069703	-73.766524	1174.490037	-287.708489	73.133948	1202.868488	-441.056822	76.359885	1184.227059	-119.215772	116.292522	1160.265285	-397.596463	126.745430	1138.181271	-162.502158	-44.055534	1216.397612	-242.388731	-49.313198	1225.614968	-315.807362	28.836365	1119.478127	-108.191803	58.222022	1113.688998	-469.106920	136.015632	994.723902	-85.456892	207.722361	942.823549	-84.092223	246.008963	866.596011	-80.930274	233.793509	964.873777	-98.841402	313.974076	738.436543	-94.452773	306.069868	722.385786	-209.303841	227.944514	645.701399	-78.297763	188.839483	565.788156	-99.090307	115.146927	522.638255	-114.517659	216.637293	548.279386	-120.001178	24.422721	399.906233	-130.932009	58.015112	396.384757	-212.335443	-45.461306	404.892450	-180.094994	199.122857	225.182416	-155.184143	125.660151	243.439895	-107.473842	128.563272	1051.239724	-474.680902	212.251440	1028.813694	-472.457167	229.728302	1059.413913	-462.005780	275.153041	965.541166	-471.044009	397.183899	861.462578	-444.192405	421.367325	838.519520	-334.494796	380.000796	743.376412	-472.609939	371.446562	658.259019	-453.763290	323.910505	583.702515	-457.597775	395.490608	652.592925	-422.956779	269.218005	451.830665	-461.508346	257.117731	447.569530	-375.090258	186.497805	422.559518	-428.104043	486.286064	428.623401	-409.671875	424.148187	386.378713	-477.302299	-184.918805	931.842238	-286.730897	-17.504745	79.205348	-485.581671	-17.469972	79.322842	-84.889513	
1502	7.5100	517.185417	1297.432798	-129.352322	526.724745	1310.843514	-407.813758	498.531984	1382.612960	-270.999493	428.948110	1239.747666	-287.402245	483.982848	1059.130757	77.779647	684.810944	941.030485	-97.934334	470.700700	1092.500060	-597.302547	647.079777	903.627093	-476.845409	-73.480911	1171.029894	-286.930892	73.322223	1200.099216	-441.602277	76.859172	1182.915227	-119.776769	116.563575	1157.423015	-397.746136	127.384198	1137.048925	-163.163507	-43.357683	1212.849905	-242.792290	-51.692311	1224.013339	-314.954912	30.038596	1118.173887	-108.044170	58.459194	1107.297598	-468.761572	139.073246	996.099871	-86.536551	211.513412	945.290746	-84.871823	251.023961	869.696576	-81.035554	237.569976	967.830587	-98.684124	319.767104	742.144032	-94.120582	311.988538	725.808057	-208.872781	232.460062	651.319303	-78.011513	191.517064	572.504722	-99.056306	116.841644	531.026614	-114.537052	219.919551	554.553384	-119.854243	23.311166	410.963676	-131.268230	56.897842	406.778337	-212.710481	-46.526071	417.102763	-180.442395	195.201449	233.629140	-155.230727	121.962906	253.156160	-107.456006	128.879301	1044.350388	-474.892410	212.094183	1020.614011	-472.964190	230.138561	1051.076540	-462.945945	273.834317	956.420479	-471.342435	393.127890	849.982556	-444.643317	417.581963	828.007108	-334.953557	377.247269	732.408197	-473.327343	370.235431	647.394182	-453.888059	324.245114	571.943534	-457.273324	394.745644	642.164672	-423.453931	271.424938	438.579905	-461.458613	259.544954	434.942312	-374.849162	189.261888	408.404296	-428.821019	488.881243	419.823360	-409.447464	427.584400	376.346425	-477.092659	-184.837721	931.759758	-286.713677	-17.473995	79.187917	-485.549678	-17.445967	79.303328	-84.856951	
1503	7.5150	516.322626	1297.227957	-128.551794	526.718321	1310.894077	-407.274579	498.185435	1382.497006	-270.103164	428.590868	1239.679968	-286.861115	483.254350	1058.613318	77.658424	684.236899	940.590856	-98.117523	470.393366	1092.838358	-596.554899	646.693208	904.046978	-476.541940	-73.600619	1168.910244	-287.366065	73.331221	1197.550649	-442.741302	77.321845	1181.503835	-120.239723	116.972760	1154.736746	-398.254214	128.049672	1136.332971	-163.908911	-43.120844	1210.411361	-243.230956	-52.863203	1222.085245	-313.371175	31.279246	1116.859366	-107.945738	58.655773	1101.291884	-468.335665	141.975323	997.185086	-87.350980	215.140074	947.621540	-85.438512	255.738511	872.618018	-81.073747	240.802536	970.253185	-99.396398	325.503543	745.795689	-93.805996	317.613651	729.036942	-208.519133	236.638641	657.080065	-77.840354	193.587463	579.028455	-99.646039	118.524322	539.444382	-114.613830	222.123075	560.831512	-119.935068	22.505240	421.950221	-131.604958	55.930172	417.193418	-213.107752	-47.028645	429.092167	-180.402877	191.922465	242.707564	-155.148747	118.992271	262.975530	-107.419252	129.096332	1037.952089	-475.390658	211.895864	1012.787004	-473.377373	230.500253	1043.009869	-463.833412	272.344378	947.494000	-471.556546	388.727052	839.635317	-445.284930	413.467631	818.739716	-334.656422	374.548810	722.029011	-473.579813	368.822539	636.898659	-454.188012	323.970156	560.699294	-457.563741	393.536299	631.993693	-423.823001	273.348802	425.876938	-461.587804	259.685210	425.254544	-376.208125	191.687837	393.866390	-428.465516	491.009220	410.511487	-409.497949	430.492959	366.007720	-476.830352	-184.659062	931.660994	-286.417567	-17.457597	79.191013	-485.540948	-17.420182	79.272165	-84.843787	
1504	7.5200	515.409757	1296.832604	-128.002722	526.835082	1310.808615	-406.776096	497.854734	1382.390981	-269.335639	428.211608	1239.668052	-286.668996	482.592572	1058.043782	77.558134	683.864082	940.275346	-98.161469	470.120518	1093.024079	-595.853431	646.339849	904.376128	-476.137694	-73.592261	1166.722228	-287.792270	73.391269	1195.148828	-443.492627	77.805310	1180.105103	-120.761977	117.302454	1152.433424	-398.827358	128.730642	1135.312621	-164.603531	-44.576620	1210.472356	-243.384892	-51.559501	1219.255575	-315.987859	32.535400	1115.511554	-107.938931	58.726564	1095.860914	-467.916315	144.634321	998.286720	-87.717713	218.523966	949.524317	-85.951681	260.288001	875.410620	-80.932383	243.761905	972.611519	-99.966830	331.201439	749.596439	-93.582228	323.109745	732.157662	-208.175728	240.868683	662.944064	-77.662439	196.137655	585.755075	-99.976190	120.415238	547.783798	-114.708095	224.340364	566.974778	-119.999741	22.152093	432.804049	-131.877681	55.378384	427.423009	-213.488920	-48.064713	441.178005	-181.282331	189.270530	251.976945	-155.352349	116.644812	273.152995	-107.399979	129.197160	1031.966179	-475.989761	211.512448	1005.292786	-473.878156	230.677544	1035.229179	-464.619474	270.818645	939.008368	-471.403848	384.377632	830.385187	-446.133743	409.139421	809.878485	-334.606560	371.483439	711.974261	-473.471517	367.051506	626.668824	-454.619717	323.165767	549.829900	-458.153429	391.851309	621.990736	-424.211442	275.156458	413.432625	-461.972433	262.103617	411.787113	-375.307571	193.688155	380.718585	-429.019788	492.868954	400.667702	-409.236845	432.967678	355.402048	-476.681113	-184.624648	931.613991	-286.309638	-17.443222	79.191161	-485.531877	-17.432412	79.263766	-84.837845	
1505	7.5250	514.684787	1296.333556	-127.401457	526.969067	1310.643812	-406.305457	497.522340	1382.279114	-268.660992	427.962145	1239.585092	-286.542791	482.085369	1057.443361	77.570874	683.777061	940.139694	-98.027227	469.912322	1093.110334	-595.216390	646.076770	904.671569	-475.744184	-73.438763	1164.722684	-288.171750	73.521279	1193.185792	-444.521638	78.261214	1178.838247	-121.252772	117.905985	1150.654902	-400.020915	129.389398	1134.718131	-165.329792	-45.324155	1208.884188	-243.575881	-51.369472	1216.757891	-316.836263	33.906271	1114.018697	-107.924593	58.658208	1091.217597	-467.615229	146.998619	998.976939	-87.738734	221.741438	951.458894	-86.106666	264.694704	878.126520	-80.671813	246.451681	974.749019	-100.476693	336.876348	753.525977	-93.603231	328.296867	735.438017	-207.891429	245.144930	669.003178	-77.603425	198.959432	592.616831	-100.013810	122.577924	556.249639	-114.678264	226.761067	573.514124	-120.119240	22.173235	443.576917	-132.145471	55.197547	437.736295	-213.852274	-47.892256	452.813639	-181.099815	187.174865	261.611857	-155.564837	115.059449	283.486927	-107.408759	128.894256	1026.582781	-476.638084	210.709995	998.269684	-474.394099	230.502487	1027.910746	-465.435670	268.678587	930.821344	-471.484863	380.099879	821.845823	-446.939215	404.334874	800.706106	-335.964879	368.033696	702.139238	-473.631798	364.795140	616.666774	-455.032413	321.976589	539.292008	-458.802878	389.728587	612.230785	-424.786526	276.402792	401.423450	-462.600635	262.696173	400.539958	-376.567538	195.290103	368.121935	-429.856290	494.221047	390.523193	-408.999457	434.872152	344.658414	-476.514792	-184.630288	931.573124	-286.269860	-17.438125	79.168441	-485.533656	-17.420140	79.265795	-84.835484	
1506	7.5300	513.902977	1295.736651	-126.919349	527.114935	1310.399026	-405.799231	497.232918	1382.213641	-268.183730	427.604089	1239.633116	-286.680274	481.785861	1056.704527	77.707321	683.928925	940.024345	-97.767503	469.726860	1093.108813	-594.674083	645.875630	904.953352	-475.330823	-73.853734	1163.706145	-290.221397	73.623368	1191.404359	-445.317990	78.579447	1177.583184	-121.690828	118.268907	1149.143477	-400.855851	129.965300	1134.136866	-166.090537	-47.152782	1207.907841	-243.493350	-51.689895	1214.422864	-317.567073	35.172524	1112.676816	-107.940533	58.442608	1087.661758	-467.591069	149.258886	999.742912	-87.476246	224.634794	953.487452	-86.276823	268.789886	880.809585	-80.571217	248.849272	976.878078	-100.860717	342.417319	757.796633	-93.704882	333.444796	739.088763	-207.689644	249.482949	675.384343	-77.509148	202.104114	599.788718	-99.970476	125.093998	564.704561	-114.695028	229.719050	580.364261	-120.233955	22.453513	454.438968	-132.398316	55.152101	448.175651	-214.307452	-47.651050	464.440240	-181.202414	185.895325	271.879579	-155.739849	113.846693	293.980779	-107.419264	128.078335	1021.957626	-477.338035	209.248838	991.865315	-474.979307	229.660920	1021.117305	-466.358006	265.784739	923.179601	-471.608862	375.501544	813.349918	-448.201583	399.424989	791.644475	-336.406697	364.434331	692.440211	-474.121250	362.162328	606.951443	-455.692041	320.293964	529.073741	-459.510146	387.278556	602.761823	-425.594530	277.257271	389.839851	-463.261184	262.909672	389.416612	-377.679133	196.632574	357.161643	-432.122469	495.291462	379.778150	-408.397686	436.266333	333.764727	-476.320018	-184.759759	931.582513	-286.251856	-17.423171	79.121642	-485.567228	-17.418874	79.246899	-84.843009	
